<?xml version="1.0" encoding="UTF-8"?>
<svg width="98px" height="36px" viewBox="0 0 98 36" version="1.1" xmlns="http://www.w3.org/2000/svg" xmlns:xlink="http://www.w3.org/1999/xlink">
    <title>img_header_logo_b</title>
    <defs>
        <rect id="path-1" x="0" y="0" width="98" height="36"></rect>
    </defs>
    <g id="切圖與規範" stroke="none" stroke-width="1" fill="none" fill-rule="evenodd">
        <g id="p2.1~3-切圖" transform="translate(-80.000000, -337.000000)">
            <g id="img_header_logo_b" transform="translate(80.000000, 337.000000)">
                <mask id="mask-2" fill="white">
                    <use xlink:href="#path-1"></use>
                </mask>
                <g id="矩形"></g>
                <g id="tvb_logo_12-01" mask="url(#mask-2)">
                    <g transform="translate(-0.000000, 4.702274)">
                        <path d="M46.1680149,22.8111885 L52.3284439,22.8111885 L52.3284439,19.9949924 L49.8114687,19.9949924 C48.7025914,19.6253666 48.8434012,18.2348698 48.8434012,18.2348698 L48.8434012,6.79407311 L50.8851434,6.79407311 C52.803677,6.79407311 52.8740819,9.75107902 52.8740819,9.75107902 L52.8740819,12.4968702 L55.690278,12.4968702 L55.690278,4.01307945 L36.6281506,4.01307945 L36.6281506,12.4968702 L39.4443467,12.4968702 L39.4443467,9.75107902 C39.4443467,9.75107902 39.4443467,6.79407311 41.4332852,6.79407311 L43.4750274,6.79407311 L43.4750274,18.2876735 C43.4750274,18.2876735 43.6158372,19.6253666 42.50696,20.047796 L39.9899847,20.047796 L39.9899847,22.8639922 L46.1680149,22.8111885 Z" id="Fill-1" fill="#231F20"></path>
                        <path d="M56.7287503,6.79407311 L56.7287503,4.01307945 L66.4270257,4.01307945 L66.4270257,6.79407311 L65.1773387,6.79407311 C65.1773387,6.79407311 63.9452529,6.63566208 64.2444737,7.93815278 C64.5436945,9.24064348 67.1662772,17.6540294 67.1662772,17.6540294 L70.6865223,7.97335523 C70.6865223,7.97335523 71.0209456,6.82927556 70.0704794,6.79407311 C69.1200132,6.75887066 68.5391728,6.79407311 68.5391728,6.79407311 L68.5391728,4.01307945 L76.4421231,4.01307945 L76.4421231,6.79407311 C75.5232182,6.73166363 74.6640364,7.25280663 74.2947736,8.09656381 C73.6611294,9.57506677 68.8031912,22.775986 68.8031912,22.775986 L63.4700198,22.775986 L58.7000876,8.69500548 C58.6078065,7.68132059 57.7463739,6.91218431 56.7287503,6.93488292" id="Fill-3" fill="#231F20"></path>
                        <path d="M88.6573737,19.7485752 C87.8321445,20.1887379 86.875029,20.313851 85.9643862,20.1005997 C85.4819336,20.0041055 85.1100868,19.6182268 85.0315212,19.1325323 L85.0315212,14.661821 L86.7916438,14.661821 C87.4010415,14.6465678 88.0050366,14.7794467 88.5517664,15.049048 C89.3908026,15.5865001 89.843524,16.5605371 89.7134473,17.548422 C89.7418404,18.4102621 89.3475703,19.2316582 88.6573737,19.7485752 L88.6573737,19.7485752 Z M85.0315212,9.89188883 L85.0315212,7.97335523 C85.1115147,7.50159952 85.4766384,7.12945421 85.946785,7.04049027 C86.8383095,6.82863037 87.7764242,6.94745822 88.5869688,7.37491356 C89.2823654,7.83668448 89.6990352,8.61711353 89.695846,9.45185819 C89.8159495,10.4097527 89.3696704,11.3503717 88.5517664,11.8632261 C88.0033602,12.1248065 87.3984727,12.245784 86.7916438,12.2152506 L85.0315212,12.2152506 L85.0315212,9.83908515 L85.0315212,9.89188883 Z M92.1776189,13.412134 C92.1776189,13.412134 95.539453,11.8104224 95.2050297,9.06463122 C95.2050297,9.06463122 95.3282383,4.36510397 89.0974044,4.03068068 L77.5333991,4.03068068 L77.5333991,6.77647188 C77.5333991,6.77647188 79.8743621,6.77647188 79.8391597,8.25497484 L79.8391597,18.252471 C79.8391597,18.252471 79.8391597,20.0125936 78.2902518,20.0125936 L77.4805954,20.0125936 L77.4805954,22.8287897 L88.6925762,22.8287897 C88.6925762,22.8287897 95.2402321,23.004802 95.3986432,17.935649 C95.3282383,17.8828453 95.9618824,15.2778639 92.1776189,13.3945327 L92.1776189,13.412134 Z" id="Fill-5" fill="#231F20"></path>
                        <g id="icon" stroke-width="1" fill="none">
                            <path d="M23.3392252,0 L9.71587657,0 C4.35693596,0 0.00988763278,4.33902512 0,9.6979506 L0,16.8795754 C0,22.2455059 4.34994611,26.595452 9.71587657,26.595452 L23.3392252,26.595452 C28.7051557,26.595452 33.0551018,22.2455059 33.0551018,16.8795754 L33.0551018,9.69827535 C33.0452142,4.33902512 28.6981659,0 23.3392252,0 Z" id="路径" fill="#D9D9D9" fill-rule="nonzero"></path>
                            <path d="M23.3392252,0.352024513 C28.5040019,0.352024513 32.6935485,4.53383865 32.7030776,9.69860009 L32.7030776,16.8795754 C32.7030776,22.0510881 28.5107379,26.2434275 23.3392252,26.2434275 L9.71587657,26.2434275 C4.54436388,26.2434275 0.352024513,22.0510881 0.352024513,16.8795754 L0.352024513,9.69827535 C0.36155331,4.53383865 4.55109995,0.352024513 9.71587657,0.352024513 L23.3392252,0.352024513 Z" id="路径" fill="#FEFEFE" fill-rule="nonzero"></path>
                            <path d="M5.86120815,17.5836244 C7.61007039,21.9404125 11.8328602,24.7956385 16.5275509,24.7956385 C21.2222416,24.7956385 25.4450314,21.9404125 27.1938937,17.5836244 L5.86120815,17.5836244 Z" id="Fill-4" fill="#EC1D24"></path>
                            <path d="M27.4931145,9.8038827 C28.2478184,12.0900375 28.2478184,14.5582181 27.4931145,16.844373 L5.56198731,16.844373 C5.18945146,15.7085417 5.00514063,14.5194395 5.01634932,13.3241278 C5.0064556,12.1302678 5.18465099,10.9422985 5.54438609,9.8038827 L27.4931145,9.8038827 Z" id="Fill-6" fill="#50B748"></path>
                            <path d="M27.1762924,8.97662509 C25.4160734,4.6429021 21.2051065,1.80820139 16.5275509,1.80820139 C11.8499953,1.80820139 7.63902841,4.6429021 5.87880938,8.97662509 L27.1762924,8.97662509 Z" id="Fill-8" fill="#00ADEE"></path>
                        </g>
                    </g>
                </g>
            </g>
        </g>
    </g>
</svg>